<?xml version="1.0" encoding="UTF-8" standalone="no"?><svg xmlns="http://www.w3.org/2000/svg" xmlns:xlink="http://www.w3.org/1999/xlink" data-name="Layer 1" fill="#000000" height="781.7" preserveAspectRatio="xMidYMid meet" version="1" viewBox="149.1 188.9 781.7 781.7" width="781.7" zoomAndPan="magnify"><g id="change1_1"><circle cx="540" cy="579.78" fill="#ffffff" r="390.86"/></g><g id="change2_1"><path d="M793.15,472.83a275.58,275.58,0,1,0,21.6,107A273.79,273.79,0,0,0,793.15,472.83ZM504,336.5c8-1.17,16-2,24.23-2.35V449.5A474.05,474.05,0,0,1,463.27,443q-11.31-1.92-21.79-4.22c27.19-62.07,61.94-101.21,62.72-102.08v0ZM656.8,484.61a395.32,395.32,0,0,1,13.63,80.76H557V478.46q17.33-.49,34.47-2.21a468.43,468.43,0,0,0,59.81-10C653.23,472.24,655.08,478.35,656.8,484.61ZM557,449.49v-115a244,244,0,0,1,27.52,3.45c3.33,4.12,33.19,42,56.83,101A450.07,450.07,0,0,1,557,449.49Zm-99.7,21.76a508.4,508.4,0,0,0,70.88,7.18v86.94H409.67a361,361,0,0,1,13.75-76.91c2.24-7.73,4.69-15.23,7.28-22.5C439.15,467.86,448,469.65,457.32,471.25Zm-61.26,8.08a385.63,385.63,0,0,0-15.11,86H294.51a244.35,244.35,0,0,1,45.88-129.06,455.6,455.6,0,0,0,62.26,22.49Q399.17,468.79,396.06,479.33ZM380.44,594.19a351.25,351.25,0,0,0,5.48,54.54,355.83,355.83,0,0,0,10.64,43.2c-30.51,9.11-52,18.65-61.72,23.3a244.36,244.36,0,0,1-40.33-121Zm28.6,0H528.2v76.35a508.35,508.35,0,0,0-70.88,7.16c-11.71,2-22.79,4.34-33.16,6.82A321,321,0,0,1,409,594.19Zm54.23,111.74a475.53,475.53,0,0,1,64.93-6.48v126A247.1,247.1,0,0,1,503.38,823q-45.64-54-69.26-111.18C443.3,709.66,453,707.66,463.27,705.93ZM557,699.46a449.74,449.74,0,0,1,91.87,12.36Q628.73,767.08,590.32,820l.58.42A245.15,245.15,0,0,1,557,825.11Zm34.47-26.75Q574.36,671,557,670.5V594.19h114a357.49,357.49,0,0,1-13.26,90A468.69,468.69,0,0,0,591.49,672.71Zm104.43-31.43a388.11,388.11,0,0,0,3.73-47.09h85.84A244.39,244.39,0,0,1,745.1,715.32,475.51,475.51,0,0,0,685.31,692,392.32,392.32,0,0,0,695.92,641.28Zm3.21-75.91a418.84,418.84,0,0,0-14.86-89.54q-2.41-8.68-5.07-17a474.91,474.91,0,0,0,60.34-22.65,244.53,244.53,0,0,1,46,129.16Zm21.49-152.3a443.84,443.84,0,0,1-51.1,18.54,476.49,476.49,0,0,0-41-81.27A246.9,246.9,0,0,1,720.62,413.07Zm-261-65.72a470.08,470.08,0,0,0-46.57,84.41,452,452,0,0,1-53.73-18.65A246.64,246.64,0,0,1,459.65,347.35ZM352.57,738.8a432.73,432.73,0,0,1,53.67-19.63q19,47.4,51.58,92.4A246.85,246.85,0,0,1,352.57,738.8Zm281.21,68.31a450.71,450.71,0,0,0,42.77-87.62,441.44,441.44,0,0,1,50.82,19.38A247.11,247.11,0,0,1,633.78,807.11Z" fill="#ffffff"/></g></svg>